<?xml version="1.0" encoding="utf-8"?>
<!-- Generator: Adobe Illustrator 21.1.0, SVG Export Plug-In . SVG Version: 6.00 Build 0)  -->
<svg version="1.1" id="Layer_1" xmlns="http://www.w3.org/2000/svg" xmlns:xlink="http://www.w3.org/1999/xlink" x="0px" y="0px"
	 viewBox="0 0 159.4 55.4" style="enable-background:new 0 0 159.4 55.4;" xml:space="preserve">
<style type="text/css">
	.st0{fill:#9F9F9F;}
</style>
<g>
	<polygon class="st0" points="141.5,51.3 141.5,31.6 131.9,5 141.1,5 145.7,18 150.3,5 159.4,5 150.1,31.6 150.1,51.3 	"/>
	<polygon class="st0" points="3.8,51.3 3.8,5.1 27.5,5.1 27.5,13.7 12.5,13.7 12.5,23.8 22.8,23.8 22.8,32.5 12.5,32.5 12.5,42.6 
		27.5,42.6 27.5,51.3 	"/>
	<polygon class="st0" points="78.5,51.3 69.5,5 78.3,5 83,28.7 87.5,5 96.3,5 87.4,51.3 	"/>
	<path class="st0" d="M114.5,51.3c-7.3,0-13.2-5.9-13.2-13.2V18.3c0-7.3,5.9-13.2,13.2-13.2c7.3,0,13.2,5.9,13.2,13.2V38
		C127.8,45.3,121.8,51.3,114.5,51.3L114.5,51.3z M114.5,13.7c-2.5,0-4.6,2-4.6,4.6V38c0,2.5,2,4.6,4.6,4.6c2.5,0,4.6-2,4.6-4.6V18.3
		C119.1,15.8,117.1,13.7,114.5,13.7L114.5,13.7z"/>
	<polygon class="st0" points="53.6,51.3 44.4,28.3 44.4,51.3 35.8,51.3 35.8,5.1 44.4,5.1 53.6,28 53.6,5.1 62.2,5.1 62.2,51.3 	"/>
</g>
</svg>
